# xmcd
#
# Track frame offsets:
#	150
#	14865
#	31735
#	48632
#	64625
#	80025
#	94275
#	107110
#	122962
#	137405
#	152920
#	167812
#
# Disc length: 2488 seconds
#
# Revision: 0
# Processed by: cddbd v1.5.1PL0 Copyright (c) Steve Scherf et al.
# Submitted via: audiograbber 1.83.01
#
DISCID=a609b60c
DTITLE=Shenandoah - Best of Shenandoah
DYEAR=1995
DGENRE=Country
TTITLE0=Janie Baker's Love Slave
TTITLE1=I Want to be Loved Like That
TTITLE2=Wednesday Night Prayer Meeting
TTITLE3=Leavin's Been A Long Time Comin'
TTITLE4=Same Old Heart
TTITLE5=Rock My Baby
TTITLE6=if Bubba Can Dance (I Can Too)
TTITLE7=Hey Mister (I Need This Job)
TTITLE8=One Kind of Woman I Like
TTITLE9=I'll Go Down Loving You
TTITLE10=Nickel In The Well
TTITLE11=Under The Kudzu
EXTD=
EXTT0=
EXTT1=
EXTT2=
EXTT3=
EXTT4=
EXTT5=
EXTT6=
EXTT7=
EXTT8=
EXTT9=
EXTT10=
EXTT11=
PLAYORDER=
